<svg xmlns="http://www.w3.org/2000/svg" width="24" height="24" viewBox="657 3877.708 24 24"><g data-name="facebook"><g data-name="Group 466"><path d="M677.484 3877.708h-16.968c-1.939 0-3.516 1.625-3.516 3.563v16.922a3.52 3.52 0 0 0 3.516 3.515h16.921c1.939 0 3.563-1.577 3.563-3.515v-16.922c0-1.938-1.577-3.563-3.516-3.563Zm-.968 12.171-.352 1.406a.703.703 0 0 1-.682.533h-3.67v6.375a.703.703 0 0 1-.703.703h-1.406a.703.703 0 0 1-.703-.703v-6.375h-2.813a.703.703 0 0 1-.703-.703v-1.407c0-.388.315-.703.703-.703H669v-2.812a4.219 4.219 0 0 1 4.219-4.219h2.11c.387 0 .702.315.702.703v1.406a.703.703 0 0 1-.703.704h-2.11c-.776 0-1.405.63-1.405 1.406v2.812h4.02c.458 0 .794.43.683.874Z" fill-rule="evenodd" data-name="Path 571"/></g></g></svg>