<svg xmlns="http://www.w3.org/2000/svg" width="16" height="16" viewBox="1 1 16 16"><path d="M9 1a8 8 0 1 0 8 8 8.01 8.01 0 0 0-8-8Zm0 14.933c-1.101 0-2.254-1.42-2.827-3.733h5.654C11.254 14.514 10.1 15.933 9 15.933Zm-3.043-4.8a14.59 14.59 0 0 1 0-4.266h6.086c.106.706.158 1.419.157 2.133.001.714-.051 1.427-.157 2.133H5.957ZM2.067 9c0-.725.115-1.444.339-2.133h2.48a14.995 14.995 0 0 0 0 4.266h-2.48A6.901 6.901 0 0 1 2.066 9ZM9 2.067c1.101 0 2.254 1.42 2.827 3.733H6.173C6.746 3.486 7.9 2.067 9 2.067Zm4.114 4.8h2.48a6.88 6.88 0 0 1 0 4.266h-2.48c.101-.706.152-1.42.153-2.133 0-.714-.052-1.427-.153-2.133Zm2.03-1.067h-2.222a8.942 8.942 0 0 0-1.369-3.24 6.967 6.967 0 0 1 3.592 3.24ZM6.448 2.56a8.942 8.942 0 0 0-1.37 3.24H2.856a6.967 6.967 0 0 1 3.592-3.24ZM2.855 12.2h2.223a8.942 8.942 0 0 0 1.369 3.24 6.967 6.967 0 0 1-3.592-3.24Zm8.698 3.24a8.942 8.942 0 0 0 1.37-3.24h2.222a6.967 6.967 0 0 1-3.592 3.24Z" fill-rule="evenodd" data-name="Path 509"/></svg>