<svg xmlns="http://www.w3.org/2000/svg" width="24" height="24" viewBox="735 3878 24 24"><g data-name="Group 468"><path d="M739 3878h16a4 4 0 0 1 4 4v16a4 4 0 0 1-4 4h-16a4 4 0 0 1-4-4v-16a4 4 0 0 1 4-4z" fill-rule="evenodd" data-name="Rectangle 381"/><path d="M743.095 3896.031h-2.922v-8.792h2.922v8.792Zm-1.461-9.993h-.019c-.98 0-1.615-.675-1.615-1.519 0-.863.654-1.519 1.653-1.519 1 0 1.615.656 1.634 1.52 0 .843-.634 1.518-1.653 1.518Zm12 9.993h-2.923v-4.704c0-1.182-.423-1.988-1.48-1.988-.808 0-1.289.544-1.5 1.069-.077.188-.096.45-.096.713v4.91h-2.922s.038-7.967 0-8.792h2.922v1.245c.388-.6 1.083-1.452 2.634-1.452 1.923 0 3.364 1.257 3.364 3.958v5.041Zm0 0" fill="#fff" fill-rule="evenodd" data-name="linkedin"/></g></svg>