<svg xmlns="http://www.w3.org/2000/svg" width="21.028" height="19.861" viewBox="48 23.639 21.028 19.861"><g data-name="Group 194"><path d="m56.493 43.33-.085-5.612a.012.012 0 0 0-.01-.012L48.41 35.27a.523.523 0 0 1-.13-.974l20.274-10.62a.324.324 0 0 1 .47.342L66.355 39.64a.857.857 0 0 1-1.134.664L59.43 38.6a.012.012 0 0 0-.015.006l-2.601 4.803a.17.17 0 0 1-.32-.078Z" stroke-linejoin="round" stroke-linecap="round" stroke-width="1.5" stroke="#fff" fill="transparent" data-name="Path 371"/><path d="m56.509 37.708 2.82.844" stroke-linejoin="round" stroke-linecap="round" stroke-width="1.5" stroke="#fff" fill="transparent" data-name="Line 317"/><path d="m56.398 37.706 12.42-14.045" stroke-linejoin="round" stroke-linecap="round" stroke-width="1.5" stroke="#fff" fill="transparent" data-name="Line 318"/></g></svg>