<svg xmlns="http://www.w3.org/2000/svg" width="24" height="24" viewBox="696 3878 24 24"><g data-name="Group 467"><path d="M700 3878h16a4 4 0 0 1 4 4v16a4 4 0 0 1-4 4h-16a4 4 0 0 1-4-4v-16a4 4 0 0 1 4-4z" fill-rule="evenodd" data-name="Rectangle 382"/><path d="M715.314 3892.842s-.133 1.066-.571 1.543c-.572.628-1.2.628-1.486.666-2.095.153-5.238.172-5.238.172s-3.905-.057-5.105-.172c-.324-.057-1.085-.038-1.657-.666-.457-.477-.571-1.543-.571-1.543s-.115-1.276-.115-2.534v-1.18c0-1.258.115-2.534.115-2.534s.133-1.066.571-1.543c.572-.628 1.2-.647 1.486-.685 2.114-.153 5.257-.172 5.257-.172s3.143.02 5.238.172c.286.038.933.057 1.505.666.457.476.571 1.562.571 1.562s.115 1.276.115 2.534l-.115 3.714Z" fill="#fff" fill-rule="evenodd" data-name="Path 573"/><path d="M706.457 3887.638v4.381l4.038-2.171-4.038-2.21Z" fill-rule="evenodd" data-name="Path 572"/></g></svg>