<svg xmlns="http://www.w3.org/2000/svg" width="170" height="25.905" viewBox="40 24 170 25.905"><g data-name="Group 369"><path d="M197.189 30.635h.038l2.5 8.631h-5.046l2.508-8.631Zm-5.199-6.18-7.578 25.001h7.345l1.342-4.622h8.218l1.335 4.622H210l-7.58-25h-10.43Z" fill="#db0405" fill-rule="evenodd" data-name="Path 503"/><g data-name="Group 368"><g data-name="Group 367" transform="translate(40 24)" clip-path="url(&quot;#a&quot;)"><path d="M31.914 12.951c0-1.37.037-2.183.063-2.786.191-3.859 1.715-4.31 4.677-4.31 2.963 0 4.488.451 4.682 4.31.026.603.061 1.416.061 2.786 0 1.379-.035 2.188-.061 2.799-.194 3.849-1.719 4.303-4.682 4.303-2.962 0-4.486-.454-4.677-4.303-.026-.61-.063-1.42-.063-2.799m4.74 12.954c7.545 0 11.183-1.325 11.7-8.134.124-1.619.147-3.28.151-4.82 0-1.532-.027-3.19-.152-4.817C47.837 1.333 44.2 0 36.653 0c-7.54 0-11.18 1.333-11.694 8.134-.124 1.627-.148 3.285-.148 4.817 0 1.54.024 3.201.148 4.82.514 6.81 4.154 8.134 11.695 8.134" fill="#db0405" fill-rule="evenodd" data-name="Path 504"/><path d="M0 .456v6.233h7.472v18.767h7.481V6.69h7.472V.456H0Z" fill="#db0405" fill-rule="evenodd" data-name="Path 505"/><path d="M107.62.456h7.097v25h-7.096v-25z" fill="#db0405" fill-rule="evenodd" data-name="Rectangle 354"/><path d="M86.173 9.583V.456h-7.061v25h7.061V15.82h8.196v9.636h7.048v-25H94.37v9.127h-8.196Z" fill="#db0405" fill-rule="evenodd" data-name="Path 506"/><path d="M128.059 6.172h4.888c1.286 0 2.071.607 2.071 2.058 0 1.253-.778 2.018-2.07 2.018h-4.89V6.172Zm0 9.017h4.888c1.982 0 2.392.867 2.392 2.275 0 1.4-.771 2.266-2.392 2.266h-4.888v-4.541Zm9.995-2.799c3.143-.802 4.064-2.686 4.064-5.399 0-5.49-3.457-6.536-8.374-6.536h-12.732v25.001h13.368c6.152 0 8.222-2.651 8.222-6.732 0-2.84-.65-5.35-4.548-6.334" fill="#db0405" fill-rule="evenodd" data-name="Path 507"/><path d="M52.614 17.251h6.724c.007 1.22.166 2.028.752 2.466.668.508 1.266.68 3.254.68 1.914 0 4.006 0 4.006-2.364 0-1.858-1.168-2.273-3.332-2.391-5.358-.283-7.296-.44-9.294-1.924-1.357-1.008-2.061-2.972-2.061-5.637 0-4.524 1.578-6.11 3.856-7.218 2.35-1.14 11.575-1.14 14.055 0 3.125 1.441 3.22 4.55 3.22 7.44H67.08c-.012-1.47-.346-1.888-.616-2.165-.697-.614-1.69-.744-3.12-.744-1.737 0-3.737.078-3.737 2.183 0 1.603.685 2.28 2.515 2.395 2.505.161 7.438.316 9.198 1.355 2.472 1.46 3.105 3.436 3.105 6.66 0 4.655-1.664 6.017-3.977 7.04-2.675 1.186-11.617 1.186-14.519-.093-3.252-1.414-3.316-4.243-3.316-7.683" fill="#db0405" fill-rule="evenodd" data-name="Path 508"/></g></g></g><defs><clipPath id="a"><path d="M0 0h170v25.905H0V0z" data-name="Rectangle 355"/></clipPath></defs></svg>